PathFileType	4	(X/Y/Z)	F:\MotionCapture\20160217\3\Generated_files\EMG_test01-Dynamic.trc
DataRate	CameraRate	NumFrames	NumMarkers	Units	OrigDataRate	OrigDataStartFrame	OrigNumFrames
120.00	120.00	       4	39	mm	120.00	439	       701
Frame#	Time	Top.Head			Front.Head			Rear.Head			R.Shoulder			R.Offset			R.Elbow			R.Wrist			L.Shoulder			L.Elbow			L.Wrist			R.ASIS			L.ASIS			V.Sacral			R.Thigh			R.Knee			R.Shank			R.Ankle			R.Heel			R.Toe			L.Thigh			L.Knee			L.Shank			L.Ankle			L.Heel			L.Toe			R1			R2			R3			R4			R5			R6			R7			L1			L2			L3			L4			L5			L6			L7			V_Mid_ASIS			V_Pelvis_Origin			V_R.Hip_JC			V_L.Hip_JC			V_R.Knee_JC			V_L.Knee_JC			V_R.Ankle_JC			V_L.Ankle_JC			V_Mid_Hip			V_Mid_Shoulder			V_R.Hand			V_L.Hand			V_R.Toe_Offset_Static			V_L.Toe_Offset_Static			V_R.Toe_Offset			V_L.Toe_Offset			
		X1	Y1	Z1	X2	Y2	Z2	X3	Y3	Z3	X4	Y4	Z4	X5	Y5	Z5	X6	Y6	Z6	X7	Y7	Z7	X8	Y8	Z8	X9	Y9	Z9	X10	Y10	Z10	X11	Y11	Z11	X12	Y12	Z12	X13	Y13	Z13	X14	Y14	Z14	X15	Y15	Z15	X16	Y16	Z16	X17	Y17	Z17	X18	Y18	Z18	X19	Y19	Z19	X20	Y20	Z20	X21	Y21	Z21	X22	Y22	Z22	X23	Y23	Z23	X24	Y24	Z24	X25	Y25	Z25	X26	Y26	Z26	X27	Y27	Z27	X28	Y28	Z28	X29	Y29	Z29	X30	Y30	Z30	X31	Y31	Z31	X32	Y32	Z32	X33	Y33	Z33	X34	Y34	Z34	X35	Y35	Z35	X36	Y36	Z36	X37	Y37	Z37	X38	Y38	Z38	X39	Y39	Z39	

439	3.650	-131.53026	147.74359	1722.24365	-9.70134	149.09271	1655.62561	-229.42670	153.21588	1639.13196	-151.53111	-48.96050	1417.09619	-274.88162	215.17836	1262.70422	-166.44737	-169.69952	1099.18787	8.55882	-170.81656	902.35785	-132.75937	358.59439	1410.00195	-206.05479	458.80124	1099.15332	-157.49846	474.46402	845.25964	-84.25984	-0.88171	928.23962	-58.08147	285.70520	941.56903	-291.51019	171.38695	933.22186	-8.42301	7.90879	557.34503	-90.92655	-29.46395	448.64090	-253.91716	64.67503	287.98398	-429.85172	22.75945	236.50980	-468.59656	99.37938	275.41666	-396.05560	28.20323	88.71681	24.91714	232.48225	639.17114	-30.22851	289.19724	464.52832	-19.79476	208.50114	325.64398	-86.83882	265.01266	59.99127	-152.96040	208.31590	42.49923	52.98145	258.16809	39.69706	-370.67023	36.06390	50.45122	-379.50031	61.58594	87.12687	-396.85995	105.19920	177.52080	-440.56631	122.42221	233.73851	-466.55460	52.37669	250.84726	-449.49243	14.68064	179.56885	-428.39221	-2.46515	115.50641	93.29101	233.26450	31.93247	64.55315	218.73540	42.19617	-30.83937	174.52536	45.63862	-113.22970	175.72499	41.82515	-123.61021	248.15462	39.73316	-52.26460	276.09552	33.01268	11.13604	290.24637	37.83190	
440	3.658	-120.61079	147.31371	1724.52148	1.42943	149.20647	1658.00562	-218.47981	152.76404	1641.11011	-140.21202	-48.57085	1419.24915	-263.23160	216.49004	1265.40466	-158.19482	-168.39113	1100.81226	10.19636	-169.55966	898.36090	-119.74567	358.48944	1412.78430	-188.02936	460.03857	1100.92725	-132.59064	474.98083	848.52386	-71.98418	0.68396	931.66492	-47.39803	286.71478	943.37134	-279.96457	170.77948	936.25311	11.59318	8.85048	563.54010	-66.91498	-28.57434	452.94009	-226.19208	66.21800	288.66574	-401.72873	24.45815	232.58730	-442.73941	100.01373	270.58371	-361.34302	31.56071	87.20525	30.49192	232.81914	637.72064	-27.24303	289.49500	464.23639	-18.36582	208.42117	325.14563	-86.73090	264.86600	59.99784	-152.97076	208.24532	42.71484	52.88715	258.28650	39.57872	-332.82013	39.42188	50.91222	-344.17270	64.16232	86.52659	-366.66998	107.17630	176.22101	-412.93903	123.47610	229.94763	-438.81494	53.19199	246.02008	-418.93954	16.72065	174.58218	-394.10315	0.77791	112.44775	93.01986	232.31596	32.48996	64.54960	218.78854	42.20175	-30.81495	174.42863	45.57655	-113.28870	175.73006	41.95207	-125.40810	249.20032	40.07664	-52.28053	276.15039	33.03600	11.08897	290.30054	37.76975	
441	3.667	-109.65083	147.13382	1726.71008	12.35089	148.94121	1660.56384	-206.81548	152.97894	1642.95264	-129.23799	-48.50713	1420.90234	-250.92845	217.87859	1267.94543	-149.71251	-167.18350	1102.78601	12.52404	-168.22243	894.06586	-107.40853	358.47156	1415.64954	-171.23903	461.14319	1102.61792	-108.00695	475.63953	851.41400	-59.52131	2.30124	934.77515	-36.56540	287.99515	945.06366	-268.73117	170.28137	938.98883	32.27098	9.74663	570.03473	-43.44629	-27.62303	457.97165	-198.85855	66.88215	289.03879	-373.96155	25.96698	227.88635	-416.24155	101.67716	264.64954	-324.61673	34.40429	85.56280	36.65962	234.05934	635.97046	-24.95144	289.55151	463.87421	-17.37760	208.06752	324.90427	-86.66299	264.83728	59.95593	-153.07370	208.23129	43.09813	52.77047	258.39093	39.57173	-296.10443	42.06060	50.59610	-308.12051	67.03849	85.53480	-335.67807	109.32607	173.66466	-384.51920	124.79156	225.54828	-411.12369	54.76149	240.31949	-387.34821	18.40139	168.79991	-358.67120	3.53800	108.90357	93.08223	232.44417	32.45526	63.79058	219.06891	41.60079	-30.63877	174.36305	45.49007	-113.11401	175.59216	42.00611	-123.86256	248.29617	40.84804	-52.29491	276.10242	33.07035	11.13776	290.31863	37.79856																																																	71.05513	247.75323	39.18418	
442	3.675	-98.78421	146.79604	1728.37000	24.00037	148.53931	1662.62451	-195.75296	152.40010	1644.29456	-117.92223	-48.46135	1422.21716	-238.37775	219.14265	1270.04529	-141.49173	-166.19035	1104.29272	14.43032	-167.22928	890.44611	-94.57204	358.29419	1418.24670	-152.84914	462.48538	1103.92493	-81.39053	476.68048	855.61469	-47.18509	3.60835	937.83423	-26.02997	289.70847	946.21918	-257.17648	169.40178	941.26703	51.78681	11.27741	576.26740	-20.62579	-26.33824	462.43298	-170.98029	68.38647	289.21964	-343.91458	27.70081	222.18665	-389.05106	103.13519	257.00842	-288.32727	36.26345	84.21371	42.85971	235.49182	634.32257	-21.62814	289.58533	463.51190	-15.78251	207.49333	325.03116	-86.77254	264.76117	60.07256	-152.23186	208.29492	42.95082	52.86151	258.37619	39.51524	-256.68015	44.72466	50.98203	-270.96954	69.02197	84.47845	-303.67593	110.91219	170.64999	-355.78397	126.90630	220.22093	-382.48224	56.23755	233.29202	-354.21323	20.21959	162.92226	-323.31799	5.35275	105.56248	93.27496	232.64835	32.34156	64.72698	218.88458	42.11164	-30.68836	174.25615	45.18560	-112.81666	175.33420	42.16818	-123.81540	248.15974	41.09190	-52.11302	276.55743	33.79018	11.08989	290.34976	37.78729																																																	-22.83069	326.12479	94.79582	
